<?xml version="1.0" encoding="UTF-8" standalone="no"?>
<!-- Created with Inkscape (http://www.inkscape.org/) -->

<svg
   width="210mm"
   height="297mm"
   viewBox="0 0 210 297"
   version="1.1"
   id="svg5"
   sodipodi:docname="angle-between-line-and-plane.svg"
   inkscape:version="1.1 (c4e8f9ed74, 2021-05-24)"
   xmlns:inkscape="http://www.inkscape.org/namespaces/inkscape"
   xmlns:sodipodi="http://sodipodi.sourceforge.net/DTD/sodipodi-0.dtd"
   xmlns="http://www.w3.org/2000/svg"
   xmlns:svg="http://www.w3.org/2000/svg"
   xmlns:ns2="http://www.iki.fi/pav/software/textext/">
  <sodipodi:namedview
     id="namedview7"
     pagecolor="#ffffff"
     bordercolor="#666666"
     borderopacity="1.0"
     inkscape:pageshadow="2"
     inkscape:pageopacity="0.0"
     inkscape:pagecheckerboard="0"
     inkscape:document-units="mm"
     showgrid="false"
     inkscape:zoom="1.5411756"
     inkscape:cx="359.79027"
     inkscape:cy="561.25984"
     inkscape:window-width="1898"
     inkscape:window-height="1035"
     inkscape:window-x="10"
     inkscape:window-y="33"
     inkscape:window-maximized="1"
     inkscape:current-layer="layer1">
    <inkscape:grid
       type="xygrid"
       id="grid1338" />
  </sodipodi:namedview>
  <defs
     id="defs2">
    <marker
       style="overflow:visible"
       id="Arrow1Mstart"
       refX="0.0"
       refY="0.0"
       orient="auto"
       inkscape:stockid="Arrow1Mstart"
       inkscape:isstock="true">
      <path
         transform="scale(0.4) translate(10,0)"
         style="fill-rule:evenodd;fill:context-stroke;stroke:context-stroke;stroke-width:1.0pt"
         d="M 0.0,0.0 L 5.0,-5.0 L -12.5,0.0 L 5.0,5.0 L 0.0,0.0 z "
         id="path2521" />
    </marker>
    <marker
       style="overflow:visible;"
       id="marker2865"
       refX="0.0"
       refY="0.0"
       orient="auto"
       inkscape:stockid="Arrow1Mend"
       inkscape:isstock="true">
      <path
         transform="scale(0.4) rotate(180) translate(10,0)"
         style="fill-rule:evenodd;fill:context-stroke;stroke:context-stroke;stroke-width:1.0pt;"
         d="M 0.0,0.0 L 5.0,-5.0 L -12.5,0.0 L 5.0,5.0 L 0.0,0.0 z "
         id="path2863" />
    </marker>
    <marker
       style="overflow:visible;"
       id="Arrow1Mend"
       refX="0.0"
       refY="0.0"
       orient="auto"
       inkscape:stockid="Arrow1Mend"
       inkscape:isstock="true">
      <path
         transform="scale(0.4) rotate(180) translate(10,0)"
         style="fill-rule:evenodd;fill:context-stroke;stroke:context-stroke;stroke-width:1.0pt;"
         d="M 0.0,0.0 L 5.0,-5.0 L -12.5,0.0 L 5.0,5.0 L 0.0,0.0 z "
         id="path2524" />
    </marker>
  </defs>
  <g
     inkscape:label="Layer 1"
     inkscape:groupmode="layer"
     id="layer1">
    <rect
       style="fill:none;stroke:#000000;stroke-width:0.361836"
       id="rect846"
       width="106.71516"
       height="60.870155"
       x="-210.38232"
       y="239.56551"
       transform="matrix(0.95234785,-0.30501406,0.93216746,0.36202737,0,0)" />
    <path
       style="font-variation-settings:normal;opacity:1;fill:none;fill-opacity:1;stroke:#000000;stroke-width:0.49999894;stroke-linecap:butt;stroke-linejoin:miter;stroke-miterlimit:4;stroke-dasharray:0.49999894,1.49999683;stroke-dashoffset:0;stroke-opacity:1;stop-color:#000000;stop-opacity:1"
       d="M 80.584378,193.82778 127.68212,95.69216"
       id="path2006" />
    <path
       style="font-variation-settings:normal;opacity:1;vector-effect:none;fill:none;fill-opacity:1;stroke:#000000;stroke-width:0.499999;stroke-linecap:butt;stroke-linejoin:miter;stroke-miterlimit:4;stroke-dasharray:none;stroke-dashoffset:0;stroke-opacity:1;stop-color:#000000;stop-opacity:1;marker-start:url(#Arrow1Mstart)"
       d="M 80.584378,193.82778 92.61708,168.88662"
       id="path2286" />
    <path
       style="font-variation-settings:normal;opacity:1;vector-effect:none;fill:none;fill-opacity:1;stroke:#000000;stroke-width:0.499999;stroke-linecap:butt;stroke-linejoin:miter;stroke-miterlimit:4;stroke-dasharray:none;stroke-dashoffset:0;stroke-opacity:1;stop-color:#000000;stop-opacity:1;marker-end:url(#marker2865)"
       d="M 104.12163,145.01323 127.68212,95.69216"
       id="path2288" />
    <path
       style="font-variation-settings:normal;opacity:1;vector-effect:none;fill:none;fill-opacity:1;stroke:#000000;stroke-width:0.499999;stroke-linecap:butt;stroke-linejoin:miter;stroke-miterlimit:4;stroke-dasharray:none;stroke-dashoffset:0;stroke-opacity:1;stop-color:#000000;stop-opacity:1;marker-end:url(#Arrow1Mend)"
       d="m 104.12163,145.01323 -0.25421,-29.21729"
       id="path2511" />
    <path
       style="font-variation-settings:normal;opacity:1;vector-effect:none;fill:none;fill-opacity:1;stroke:#000000;stroke-width:0.499999;stroke-linecap:butt;stroke-linejoin:miter;stroke-miterlimit:4;stroke-dasharray:none;stroke-dashoffset:0;stroke-opacity:1;stop-color:#000000;stop-opacity:1;marker-end:url(#Arrow1Mend)"
       d="m 104.12163,145.01323 36.37685,-10.41312"
       id="path2513" />
    <g
       transform="matrix(1.05833 0 0 1.05833 133.37 88.5277)"
       ns2:version="1.3.0"
       ns2:texconverter="pdflatex"
       ns2:pdfconverter="inkscape"
       ns2:text="$l_1$"
       ns2:preamble="/home/avan/.config/inkscape/extensions/textext/custom_preamble.tex"
       ns2:scale="3.0"
       ns2:alignment="middle center"
       ns2:jacobian_sqrt="1.05833"
       id="g2932">
      <defs
         id="id-e84f111f-39e5-4e0b-8742-b9a928e255c8">
        <g
           id="id-830307b9-9d6f-4d47-aec2-52a3e06ab968">
          <symbol
             overflow="visible"
             id="id-18357a39-7f2b-4b85-872e-45d2f99aa59f">
            <path
               style="stroke:none;stroke-width:0"
               d=""
               id="id-bc377821-0335-4b7c-bc95-8f2815181114" />
          </symbol>
          <symbol
             overflow="visible"
             id="id-b11c5a1b-8cdc-4499-8661-a4c1341f5b59">
            <path
               style="stroke:none;stroke-width:0"
               d="m 2.578125,-6.8125 c 0,0 0,-0.109375 -0.140625,-0.109375 -0.21875,0 -0.953125,0.078125 -1.21875,0.109375 -0.078125,0 -0.1875,0.015625 -0.1875,0.203125 0,0.109375 0.109375,0.109375 0.25,0.109375 0.484375,0 0.5,0.09375 0.5,0.171875 L 1.75,-6.125 0.484375,-1.140625 C 0.453125,-1.03125 0.4375,-0.96875 0.4375,-0.8125 c 0,0.578125 0.4375,0.921875 0.90625,0.921875 0.328125,0 0.578125,-0.203125 0.75,-0.5625 0.171875,-0.375 0.296875,-0.953125 0.296875,-0.96875 0,-0.109375 -0.09375,-0.109375 -0.125,-0.109375 -0.09375,0 -0.109375,0.046875 -0.125,0.1875 C 1.96875,-0.703125 1.78125,-0.109375 1.375,-0.109375 c -0.296875,0 -0.296875,-0.3125 -0.296875,-0.453125 0,-0.25 0.015625,-0.296875 0.0625,-0.484375 z m 0,0"
               id="id-7a6b7808-b68d-43af-83a3-a71ee71a2204" />
          </symbol>
          <symbol
             overflow="visible"
             id="id-34ba9a7e-f989-4a50-bb3c-3e66603901b8">
            <path
               style="stroke:none;stroke-width:0"
               d=""
               id="id-497dbbea-1fc1-4950-ad9d-df9a00fe6c12" />
          </symbol>
          <symbol
             overflow="visible"
             id="id-75fbf3ff-dd48-4fea-a6f8-284dce98faa0">
            <path
               style="stroke:none;stroke-width:0"
               d="m 2.328125,-4.4375 c 0,-0.1875 0,-0.1875 -0.203125,-0.1875 -0.453125,0.4375 -1.078125,0.4375 -1.359375,0.4375 v 0.25 c 0.15625,0 0.625,0 1,-0.1875 v 3.546875 c 0,0.234375 0,0.328125 -0.6875,0.328125 H 0.8125 V 0 c 0.125,0 0.984375,-0.03125 1.234375,-0.03125 0.21875,0 1.09375,0.03125 1.25,0.03125 V -0.25 H 3.03125 c -0.703125,0 -0.703125,-0.09375 -0.703125,-0.328125 z m 0,0"
               id="id-af4c248f-d05c-48cf-bb1a-6e1319e6ddad" />
          </symbol>
        </g>
      </defs>
      <g
         id="id-7e4301d2-4d4b-41e2-b58b-d898bc36b428"
         transform="translate(-149.15,-127.843)">
        <g
           style="fill:#000000;fill-opacity:1"
           id="id-006211f3-02d8-43df-a6c4-71d8a7b1e5ed">
          <g
             transform="translate(148.712,134.765)"
             id="g2924">
            <path
               style="stroke:none;stroke-width:0"
               d="m 2.578125,-6.8125 c 0,0 0,-0.109375 -0.140625,-0.109375 -0.21875,0 -0.953125,0.078125 -1.21875,0.109375 -0.078125,0 -0.1875,0.015625 -0.1875,0.203125 0,0.109375 0.109375,0.109375 0.25,0.109375 0.484375,0 0.5,0.09375 0.5,0.171875 L 1.75,-6.125 0.484375,-1.140625 C 0.453125,-1.03125 0.4375,-0.96875 0.4375,-0.8125 c 0,0.578125 0.4375,0.921875 0.90625,0.921875 0.328125,0 0.578125,-0.203125 0.75,-0.5625 0.171875,-0.375 0.296875,-0.953125 0.296875,-0.96875 0,-0.109375 -0.09375,-0.109375 -0.125,-0.109375 -0.09375,0 -0.109375,0.046875 -0.125,0.1875 C 1.96875,-0.703125 1.78125,-0.109375 1.375,-0.109375 c -0.296875,0 -0.296875,-0.3125 -0.296875,-0.453125 0,-0.25 0.015625,-0.296875 0.0625,-0.484375 z m 0,0"
               id="id-37bc7d58-3bd9-4dbb-99c7-db1a45e1c1b9" />
          </g>
        </g>
        <g
           style="fill:#000000;fill-opacity:1"
           id="id-c6653901-9def-4afe-94b3-9d890796f4fa">
          <g
             transform="translate(151.685,136.259)"
             id="g2928">
            <path
               style="stroke:none;stroke-width:0"
               d="m 2.328125,-4.4375 c 0,-0.1875 0,-0.1875 -0.203125,-0.1875 -0.453125,0.4375 -1.078125,0.4375 -1.359375,0.4375 v 0.25 c 0.15625,0 0.625,0 1,-0.1875 v 3.546875 c 0,0.234375 0,0.328125 -0.6875,0.328125 H 0.8125 V 0 c 0.125,0 0.984375,-0.03125 1.234375,-0.03125 0.21875,0 1.09375,0.03125 1.25,0.03125 V -0.25 H 3.03125 c -0.703125,0 -0.703125,-0.09375 -0.703125,-0.328125 z m 0,0"
               id="id-de76db66-3ab1-48bc-82b4-33cc8aca9ac2" />
          </g>
        </g>
      </g>
    </g>
    <g
       transform="matrix(1.05833,0,0,1.05833,94.128427,110.32654)"
       ns2:version="1.3.0"
       ns2:texconverter="pdflatex"
       ns2:pdfconverter="inkscape"
       ns2:text="$\\vec n$"
       ns2:preamble="/home/avan/.config/inkscape/extensions/textext/custom_preamble.tex"
       ns2:scale="3.0"
       ns2:alignment="middle center"
       ns2:jacobian_sqrt="1.05833"
       id="g3165">
      <defs
         id="id-32589be8-3301-460e-886f-169ae5f2aeec">
        <g
           id="id-b0be915b-2e0e-4777-8ba4-a29b73974e94">
          <symbol
             overflow="visible"
             id="id-2fb49400-2400-423d-b8f3-0b2c6618e9ab">
            <path
               style="stroke:none;stroke-width:0"
               d=""
               id="id-92baa1b2-596c-4c06-8f49-f9708545d4ff" />
          </symbol>
          <symbol
             overflow="visible"
             id="id-0588eff0-9470-4b69-9474-bd5c7af10dab">
            <path
               style="stroke:none;stroke-width:0"
               d="m 5.359375,-5.9375 c -0.140625,0.140625 -0.46875,0.421875 -0.46875,0.59375 0,0.09375 0.09375,0.203125 0.1875,0.203125 0.09375,0 0.140625,-0.078125 0.203125,-0.140625 C 5.390625,-5.421875 5.625,-5.703125 6.0625,-5.921875 6.125,-5.96875 6.234375,-6.015625 6.234375,-6.125 6.234375,-6.234375 6.15625,-6.28125 6.09375,-6.328125 5.875,-6.484375 5.765625,-6.65625 5.6875,-6.890625 5.65625,-6.984375 5.625,-7.125 5.484375,-7.125 c -0.140625,0 -0.203125,0.140625 -0.203125,0.21875 0,0.046875 0.078125,0.359375 0.234375,0.578125 H 2.15625 c -0.15625,0 -0.34375,0 -0.34375,0.203125 0,0.1875 0.1875,0.1875 0.34375,0.1875 z m 0,0"
               id="id-8a55ec0c-1e62-4ea9-8082-f9f4b93a2489" />
          </symbol>
          <symbol
             overflow="visible"
             id="id-49bccc8c-bb00-4039-b569-7d6f089909dc">
            <path
               style="stroke:none;stroke-width:0"
               d="m 0.875,-0.59375 c -0.03125,0.15625 -0.09375,0.390625 -0.09375,0.4375 0,0.171875 0.140625,0.265625 0.296875,0.265625 0.125,0 0.296875,-0.078125 0.375,-0.28125 0,-0.015625 0.125,-0.484375 0.1875,-0.734375 l 0.21875,-0.890625 C 1.90625,-2.03125 1.96875,-2.25 2.03125,-2.46875 c 0.03125,-0.171875 0.109375,-0.46875 0.125,-0.5 0.140625,-0.3125 0.671875,-1.21875 1.625,-1.21875 0.453125,0 0.53125,0.375 0.53125,0.703125 0,0.609375 -0.484375,1.890625 -0.640625,2.3125 C 3.578125,-0.9375 3.5625,-0.8125 3.5625,-0.703125 c 0,0.46875 0.359375,0.8125 0.828125,0.8125 0.9375,0 1.296875,-1.453125 1.296875,-1.53125 0,-0.109375 -0.078125,-0.109375 -0.109375,-0.109375 -0.109375,0 -0.109375,0.03125 -0.15625,0.1875 -0.203125,0.671875 -0.53125,1.234375 -1.015625,1.234375 -0.171875,0 -0.234375,-0.09375 -0.234375,-0.328125 0,-0.25 0.078125,-0.484375 0.171875,-0.703125 0.1875,-0.53125 0.609375,-1.625 0.609375,-2.203125 0,-0.65625 -0.421875,-1.0625 -1.140625,-1.0625 -0.90625,0 -1.390625,0.640625 -1.5625,0.875 -0.046875,-0.5625 -0.453125,-0.875 -0.921875,-0.875 -0.453125,0 -0.640625,0.390625 -0.734375,0.5625 C 0.421875,-3.5 0.296875,-2.90625 0.296875,-2.875 c 0,0.109375 0.09375,0.109375 0.109375,0.109375 0.109375,0 0.109375,-0.015625 0.171875,-0.234375 0.171875,-0.703125 0.375,-1.1875 0.734375,-1.1875 0.1875,0 0.296875,0.125 0.296875,0.453125 0,0.21875 -0.03125,0.328125 -0.15625,0.84375 z m 0,0"
               id="id-2a227c9c-86e1-4aef-9525-0fdaede36757" />
          </symbol>
        </g>
      </defs>
      <g
         id="id-a1b49ac0-9f63-40c5-a508-91b2bbbbf48e"
         transform="translate(-149.011,-127.64)">
        <g
           style="fill:#000000;fill-opacity:1"
           id="id-7bc768b8-3774-4028-a48e-134deaf6430e">
          <g
             transform="translate(148.445,134.765)"
             id="g3157">
            <path
               style="stroke:none;stroke-width:0"
               d="m 5.359375,-5.9375 c -0.140625,0.140625 -0.46875,0.421875 -0.46875,0.59375 0,0.09375 0.09375,0.203125 0.1875,0.203125 0.09375,0 0.140625,-0.078125 0.203125,-0.140625 C 5.390625,-5.421875 5.625,-5.703125 6.0625,-5.921875 6.125,-5.96875 6.234375,-6.015625 6.234375,-6.125 6.234375,-6.234375 6.15625,-6.28125 6.09375,-6.328125 5.875,-6.484375 5.765625,-6.65625 5.6875,-6.890625 5.65625,-6.984375 5.625,-7.125 5.484375,-7.125 c -0.140625,0 -0.203125,0.140625 -0.203125,0.21875 0,0.046875 0.078125,0.359375 0.234375,0.578125 H 2.15625 c -0.15625,0 -0.34375,0 -0.34375,0.203125 0,0.1875 0.1875,0.1875 0.34375,0.1875 z m 0,0"
               id="id-02bbea5a-55e3-4622-b676-97fd26e3c3ef" />
          </g>
        </g>
        <g
           style="fill:#000000;fill-opacity:1"
           id="id-e7bc4cb7-9442-40be-ab8a-a1f49c513457">
          <g
             transform="translate(148.714,134.765)"
             id="g3161">
            <path
               style="stroke:none;stroke-width:0"
               d="m 0.875,-0.59375 c -0.03125,0.15625 -0.09375,0.390625 -0.09375,0.4375 0,0.171875 0.140625,0.265625 0.296875,0.265625 0.125,0 0.296875,-0.078125 0.375,-0.28125 0,-0.015625 0.125,-0.484375 0.1875,-0.734375 l 0.21875,-0.890625 C 1.90625,-2.03125 1.96875,-2.25 2.03125,-2.46875 c 0.03125,-0.171875 0.109375,-0.46875 0.125,-0.5 0.140625,-0.3125 0.671875,-1.21875 1.625,-1.21875 0.453125,0 0.53125,0.375 0.53125,0.703125 0,0.609375 -0.484375,1.890625 -0.640625,2.3125 C 3.578125,-0.9375 3.5625,-0.8125 3.5625,-0.703125 c 0,0.46875 0.359375,0.8125 0.828125,0.8125 0.9375,0 1.296875,-1.453125 1.296875,-1.53125 0,-0.109375 -0.078125,-0.109375 -0.109375,-0.109375 -0.109375,0 -0.109375,0.03125 -0.15625,0.1875 -0.203125,0.671875 -0.53125,1.234375 -1.015625,1.234375 -0.171875,0 -0.234375,-0.09375 -0.234375,-0.328125 0,-0.25 0.078125,-0.484375 0.171875,-0.703125 0.1875,-0.53125 0.609375,-1.625 0.609375,-2.203125 0,-0.65625 -0.421875,-1.0625 -1.140625,-1.0625 -0.90625,0 -1.390625,0.640625 -1.5625,0.875 -0.046875,-0.5625 -0.453125,-0.875 -0.921875,-0.875 -0.453125,0 -0.640625,0.390625 -0.734375,0.5625 C 0.421875,-3.5 0.296875,-2.90625 0.296875,-2.875 c 0,0.109375 0.09375,0.109375 0.109375,0.109375 0.109375,0 0.109375,-0.015625 0.171875,-0.234375 0.171875,-0.703125 0.375,-1.1875 0.734375,-1.1875 0.1875,0 0.296875,0.125 0.296875,0.453125 0,0.21875 -0.03125,0.328125 -0.15625,0.84375 z m 0,0"
               id="id-c6dcfe82-fead-4bdd-922a-511bbaa1e68c" />
          </g>
        </g>
      </g>
    </g>
    <path
       style="font-variation-settings:normal;opacity:1;vector-effect:none;fill:none;fill-opacity:1;stroke:#000000;stroke-width:0.499999;stroke-linecap:butt;stroke-linejoin:miter;stroke-miterlimit:4;stroke-dasharray:none;stroke-dashoffset:0;stroke-opacity:1;stop-color:#000000;stop-opacity:1"
       d="m 104.09874,135.36868 c 0,0 2.11467,-1.70707 4.6361,0.17911"
       id="path3237" />
    <g
       transform="matrix(1.05833,0,0,1.05833,105.38377,124.05262)"
       ns2:version="1.3.0"
       ns2:texconverter="pdflatex"
       ns2:pdfconverter="inkscape"
       ns2:text="$\\phi$"
       ns2:preamble="/home/avan/.config/inkscape/extensions/textext/custom_preamble.tex"
       ns2:scale="3.0"
       ns2:alignment="middle center"
       ns2:jacobian_sqrt="1.05833"
       id="g3352">
      <defs
         id="id-fd2d3ecc-b9cd-48de-82f8-0ecd893d8d36">
        <g
           id="id-58ce00d1-f217-4bbf-9224-ced658aebd7c">
          <symbol
             overflow="visible"
             id="id-cab80332-7400-40e3-b933-d5abeea79514">
            <path
               style="stroke:none;stroke-width:0"
               d=""
               id="id-fa632f9f-d2a5-40ef-bd2b-c93baf07fa0c" />
          </symbol>
          <symbol
             overflow="visible"
             id="id-309741d1-379a-47e8-a690-09ad24f39583">
            <path
               style="stroke:none;stroke-width:0"
               d="m 4.359375,-6.671875 c 0,-0.03125 0.03125,-0.140625 0.03125,-0.140625 0,-0.015625 0,-0.109375 -0.125,-0.109375 -0.09375,0 -0.109375,0.03125 -0.15625,0.203125 L 3.53125,-4.421875 c -1.578125,0.0625 -3.046875,1.375 -3.046875,2.734375 0,0.953125 0.703125,1.734375 1.921875,1.8125 C 2.328125,0.421875 2.25,0.75 2.171875,1.0625 c -0.125,0.46875 -0.21875,0.84375 -0.21875,0.875 0,0.09375 0.078125,0.109375 0.125,0.109375 C 2.125,2.046875 2.140625,2.03125 2.171875,2 2.1875,1.984375 2.25,1.75 2.28125,1.609375 L 2.65625,0.125 c 1.609375,-0.0625 3.0625,-1.40625 3.0625,-2.734375 0,-0.796875 -0.53125,-1.703125 -1.921875,-1.8125 z m -1.90625,6.578125 c -0.59375,-0.03125 -1.3125,-0.390625 -1.3125,-1.375 0,-1.203125 0.859375,-2.59375 2.34375,-2.734375 z m 1.28125,-4.109375 c 0.765625,0.046875 1.328125,0.5 1.328125,1.375 0,1.1875 -0.859375,2.609375 -2.34375,2.734375 z m 0,0"
               id="id-cc81bd2f-a6fe-4fbd-8ef1-c7f0ab524182" />
          </symbol>
        </g>
      </defs>
      <g
         id="id-815754b8-41a7-4acd-b186-1513d509a636"
         transform="translate(-149.196,-127.843)">
        <g
           style="fill:#000000;fill-opacity:1"
           id="id-05b39cae-b903-4bd8-9655-72b8d014566d">
          <g
             transform="translate(148.712,134.765)"
             id="g3348">
            <path
               style="stroke:none;stroke-width:0"
               d="m 4.359375,-6.671875 c 0,-0.03125 0.03125,-0.140625 0.03125,-0.140625 0,-0.015625 0,-0.109375 -0.125,-0.109375 -0.09375,0 -0.109375,0.03125 -0.15625,0.203125 L 3.53125,-4.421875 c -1.578125,0.0625 -3.046875,1.375 -3.046875,2.734375 0,0.953125 0.703125,1.734375 1.921875,1.8125 C 2.328125,0.421875 2.25,0.75 2.171875,1.0625 c -0.125,0.46875 -0.21875,0.84375 -0.21875,0.875 0,0.09375 0.078125,0.109375 0.125,0.109375 C 2.125,2.046875 2.140625,2.03125 2.171875,2 2.1875,1.984375 2.25,1.75 2.28125,1.609375 L 2.65625,0.125 c 1.609375,-0.0625 3.0625,-1.40625 3.0625,-2.734375 0,-0.796875 -0.53125,-1.703125 -1.921875,-1.8125 z m -1.90625,6.578125 c -0.59375,-0.03125 -1.3125,-0.390625 -1.3125,-1.375 0,-1.203125 0.859375,-2.59375 2.34375,-2.734375 z m 1.28125,-4.109375 c 0.765625,0.046875 1.328125,0.5 1.328125,1.375 0,1.1875 -0.859375,2.609375 -2.34375,2.734375 z m 0,0"
               id="id-a4598831-112c-468e-bd29-1583b5a977de" />
          </g>
        </g>
      </g>
    </g>
    <g
       transform="matrix(1.05833,0,0,1.05833,113.387,131.44791)"
       ns2:version="1.3.0"
       ns2:texconverter="pdflatex"
       ns2:pdfconverter="inkscape"
       ns2:text="$\\theta$"
       ns2:preamble="/home/avan/.config/inkscape/extensions/textext/custom_preamble.tex"
       ns2:scale="3.0"
       ns2:alignment="middle center"
       ns2:jacobian_sqrt="1.05833"
       id="g3616">
      <defs
         id="id-d3ebfd76-7492-44e8-b3a0-c62d04af5e0b">
        <g
           id="id-0da1a190-0d27-41d8-b8ad-5a8c78ac34d5">
          <symbol
             overflow="visible"
             id="id-c68d20aa-5f16-440f-ae3c-bac2662800ec">
            <path
               style="stroke:none;stroke-width:0"
               d=""
               id="id-0123aa4f-3de4-44d5-927c-30dbffc3bbc6" />
          </symbol>
          <symbol
             overflow="visible"
             id="id-077885c4-cdbb-4e39-91b5-f76fdec19096">
            <path
               style="stroke:none;stroke-width:0"
               d="m 4.53125,-4.984375 c 0,-0.65625 -0.171875,-2.046875 -1.1875,-2.046875 -1.390625,0 -2.921875,2.8125 -2.921875,5.09375 0,0.9375 0.28125,2.046875 1.1875,2.046875 1.40625,0 2.921875,-2.859375 2.921875,-5.09375 z M 1.46875,-3.625 C 1.640625,-4.25 1.84375,-5.046875 2.25,-5.765625 2.515625,-6.25 2.875,-6.8125 3.328125,-6.8125 c 0.484375,0 0.546875,0.640625 0.546875,1.203125 0,0.5 -0.078125,1 -0.3125,1.984375 z m 2,0.328125 C 3.359375,-2.84375 3.15625,-2 2.765625,-1.28125 c -0.34375,0.6875 -0.71875,1.171875 -1.15625,1.171875 -0.328125,0 -0.53125,-0.296875 -0.53125,-1.21875 0,-0.421875 0.0625,-1 0.3125,-1.96875 z m 0,0"
               id="id-6f6b9251-c499-4cd4-9b2a-478d7fffb43d" />
          </symbol>
        </g>
      </defs>
      <g
         id="id-5ec7584a-6ca6-4b8b-87ff-0ad321c19c4e"
         transform="translate(-149.134,-127.734)">
        <g
           style="fill:#000000;fill-opacity:1"
           id="id-3af9ae57-b2c1-4357-b84f-80919f8adc7a">
          <g
             transform="translate(148.712,134.765)"
             id="g3612">
            <path
               style="stroke:none;stroke-width:0"
               d="m 4.53125,-4.984375 c 0,-0.65625 -0.171875,-2.046875 -1.1875,-2.046875 -1.390625,0 -2.921875,2.8125 -2.921875,5.09375 0,0.9375 0.28125,2.046875 1.1875,2.046875 1.40625,0 2.921875,-2.859375 2.921875,-5.09375 z M 1.46875,-3.625 C 1.640625,-4.25 1.84375,-5.046875 2.25,-5.765625 2.515625,-6.25 2.875,-6.8125 3.328125,-6.8125 c 0.484375,0 0.546875,0.640625 0.546875,1.203125 0,0.5 -0.078125,1 -0.3125,1.984375 z m 2,0.328125 C 3.359375,-2.84375 3.15625,-2 2.765625,-1.28125 c -0.34375,0.6875 -0.71875,1.171875 -1.15625,1.171875 -0.328125,0 -0.53125,-0.296875 -0.53125,-1.21875 0,-0.421875 0.0625,-1 0.3125,-1.96875 z m 0,0"
               id="id-a919f5cc-18e8-435d-b8c2-a3f694483f02" />
          </g>
        </g>
      </g>
    </g>
    <path
       style="font-variation-settings:normal;opacity:1;vector-effect:none;fill:none;fill-opacity:1;stroke:#000000;stroke-width:0.499999;stroke-linecap:butt;stroke-linejoin:miter;stroke-miterlimit:4;stroke-dasharray:none;stroke-dashoffset:0;stroke-opacity:1;stop-color:#000000;stop-opacity:1"
       d="m 107.14096,139.5937 c 0,0 3.44709,0.64079 2.3415,3.6061"
       id="path3878" />
  </g>
</svg>
