<?xml version="1.0" encoding="UTF-8" standalone="no"?>
<svg
   xmlns:ns2="http://www.iki.fi/pav/software/textext/"
   xmlns:dc="http://purl.org/dc/elements/1.1/"
   xmlns:cc="http://creativecommons.org/ns#"
   xmlns:rdf="http://www.w3.org/1999/02/22-rdf-syntax-ns#"
   xmlns:svg="http://www.w3.org/2000/svg"
   xmlns="http://www.w3.org/2000/svg"
   xmlns:sodipodi="http://sodipodi.sourceforge.net/DTD/sodipodi-0.dtd"
   xmlns:inkscape="http://www.inkscape.org/namespaces/inkscape"
   width="210mm"
   height="297mm"
   viewBox="0 0 210 297"
   version="1.1"
   id="svg8"
   sodipodi:docname="parallelepiped.svg"
   inkscape:version="1.0.2 (e86c870879, 2021-01-15, custom)">
  <defs
     id="defs2" />
  <sodipodi:namedview
     id="base"
     pagecolor="#ffffff"
     bordercolor="#666666"
     borderopacity="1.0"
     inkscape:pageopacity="0.0"
     inkscape:pageshadow="2"
     inkscape:zoom="1.4"
     inkscape:cx="205.54564"
     inkscape:cy="519.29803"
     inkscape:document-units="mm"
     inkscape:current-layer="layer1"
     inkscape:document-rotation="0"
     showgrid="false"
     inkscape:window-width="1898"
     inkscape:window-height="1035"
     inkscape:window-x="10"
     inkscape:window-y="33"
     inkscape:window-maximized="0">
    <inkscape:grid
       type="xygrid"
       id="grid857" />
  </sodipodi:namedview>
  <metadata
     id="metadata5">
    <rdf:RDF>
      <cc:Work
         rdf:about="">
        <dc:format>image/svg+xml</dc:format>
        <dc:type
           rdf:resource="http://purl.org/dc/dcmitype/StillImage" />
        <dc:title></dc:title>
      </cc:Work>
    </rdf:RDF>
  </metadata>
  <g
     inkscape:label="Layer 1"
     inkscape:groupmode="layer"
     id="layer1">
    <path
       style="font-variation-settings:normal;opacity:1;vector-effect:none;fill:none;fill-opacity:1;stroke:#000000;stroke-width:0.5;stroke-linecap:butt;stroke-linejoin:miter;stroke-miterlimit:4;stroke-dasharray:none;stroke-dashoffset:0;stroke-opacity:1;stop-color:#000000;stop-opacity:1"
       d="m 51.118511,115.47972 -20.83827,39.6875 40.692319,-17.58389 20.838272,-39.687498 h 73.519948 l -20.83826,39.687498 -40.69231,17.58389 20.83826,-39.6875"
       id="path868" />
    <path
       style="font-variation-settings:normal;opacity:1;vector-effect:none;fill:none;fill-opacity:1;stroke:#000000;stroke-width:0.499999;stroke-linecap:butt;stroke-linejoin:miter;stroke-miterlimit:4;stroke-dasharray:none;stroke-dashoffset:0;stroke-opacity:1;stop-color:#000000;stop-opacity:1"
       d="m 30.280242,155.16722 h 73.519968 l 40.69231,-17.58389 H 70.97256"
       id="path870" />
    <path
       style="font-variation-settings:normal;opacity:1;vector-effect:none;fill:none;fill-opacity:1;stroke:#000000;stroke-width:0.499999;stroke-linecap:butt;stroke-linejoin:miter;stroke-miterlimit:4;stroke-dasharray:none;stroke-dashoffset:0;stroke-opacity:1;stop-color:#000000;stop-opacity:1"
       d="M 51.11851,115.47972 91.810831,97.895829 h 73.519949 l -40.69231,17.583891 z"
       id="path872" />
    <g
       transform="matrix(1.05833 0 0 1.05833 61.7811 159.796)"
       ns2:version="1.3.0"
       ns2:texconverter="pdflatex"
       ns2:pdfconverter="inkscape"
       ns2:text="$\\vec u$"
       ns2:preamble="/home/avan/.config/inkscape/extensions/textext/custom_preamble.tex"
       ns2:scale="3.0"
       ns2:alignment="middle center"
       ns2:jacobian_sqrt="1.05833"
       id="g898">
      <defs
         id="id-a498d076-2522-4fe2-8139-c52bb0a4ba92">
        <g
           id="id-aba175a5-eda2-4a6b-be1c-7676d327e3ed">
          <symbol
             overflow="visible"
             id="id-b4e9b1d1-799f-4b7b-9d6b-989b0da7d682">
            <path
               style="stroke:none;stroke-width:0"
               d=""
               id="id-8289faa7-239a-42e0-8674-c12f96f82771" />
          </symbol>
          <symbol
             overflow="visible"
             id="id-7e3fe346-5b17-4a1d-a72f-308ed951ebbf">
            <path
               style="stroke:none;stroke-width:0"
               d="m 5.359375,-5.9375 c -0.140625,0.140625 -0.46875,0.421875 -0.46875,0.59375 0,0.09375 0.09375,0.203125 0.1875,0.203125 0.09375,0 0.140625,-0.078125 0.203125,-0.140625 C 5.390625,-5.421875 5.625,-5.703125 6.0625,-5.921875 6.125,-5.96875 6.234375,-6.015625 6.234375,-6.125 6.234375,-6.234375 6.15625,-6.28125 6.09375,-6.328125 5.875,-6.484375 5.765625,-6.65625 5.6875,-6.890625 5.65625,-6.984375 5.625,-7.125 5.484375,-7.125 c -0.140625,0 -0.203125,0.140625 -0.203125,0.21875 0,0.046875 0.078125,0.359375 0.234375,0.578125 H 2.15625 c -0.15625,0 -0.34375,0 -0.34375,0.203125 0,0.1875 0.1875,0.1875 0.34375,0.1875 z m 0,0"
               id="id-768c0a85-525d-4dfb-bbac-14aee6562410" />
          </symbol>
          <symbol
             overflow="visible"
             id="id-180d9221-0923-4d6e-bfca-1b71cb08edd7">
            <path
               style="stroke:none;stroke-width:0"
               d="M 3.484375,-0.5625 C 3.59375,-0.15625 3.953125,0.109375 4.375,0.109375 4.71875,0.109375 4.953125,-0.125 5.109375,-0.4375 5.28125,-0.796875 5.40625,-1.40625 5.40625,-1.421875 c 0,-0.109375 -0.078125,-0.109375 -0.109375,-0.109375 -0.109375,0 -0.109375,0.046875 -0.140625,0.1875 -0.140625,0.5625 -0.328125,1.234375 -0.75,1.234375 -0.203125,0 -0.3125,-0.125 -0.3125,-0.453125 0,-0.21875 0.125,-0.6875 0.203125,-1.046875 L 4.578125,-2.6875 C 4.609375,-2.828125 4.703125,-3.203125 4.75,-3.359375 4.796875,-3.59375 4.890625,-3.96875 4.890625,-4.03125 c 0,-0.171875 -0.140625,-0.265625 -0.28125,-0.265625 -0.046875,0 -0.3125,0.015625 -0.390625,0.34375 -0.1875,0.734375 -0.625,2.484375 -0.75,3 -0.015625,0.046875 -0.40625,0.84375 -1.140625,0.84375 -0.515625,0 -0.609375,-0.453125 -0.609375,-0.8125 0,-0.5625 0.28125,-1.34375 0.53125,-2.03125 0.125,-0.3125 0.171875,-0.453125 0.171875,-0.640625 0,-0.4375 -0.3125,-0.8125 -0.8125,-0.8125 -0.953125,0 -1.3125,1.453125 -1.3125,1.53125 0,0.109375 0.09375,0.109375 0.109375,0.109375 0.109375,0 0.109375,-0.03125 0.15625,-0.1875 0.25,-0.859375 0.640625,-1.234375 1.015625,-1.234375 0.09375,0 0.25,0.015625 0.25,0.328125 0,0.234375 -0.109375,0.53125 -0.171875,0.671875 -0.375,1 -0.578125,1.609375 -0.578125,2.09375 0,0.953125 0.6875,1.203125 1.21875,1.203125 0.65625,0 1.015625,-0.453125 1.1875,-0.671875 z m 0,0"
               id="id-f8cde7e7-0ce8-4b8f-99d0-23d5b53445ee" />
          </symbol>
        </g>
      </defs>
      <g
         id="id-fe43a68b-ab21-4922-9907-a7d841418f46"
         transform="translate(-149.01,-127.64)">
        <g
           style="fill:#000000;fill-opacity:1"
           id="id-52f692a0-62a0-4cb9-8b3c-42ce5767a764">
          <g
             transform="translate(148.584,134.765)"
             id="g890">
            <path
               style="stroke:none;stroke-width:0"
               d="m 5.359375,-5.9375 c -0.140625,0.140625 -0.46875,0.421875 -0.46875,0.59375 0,0.09375 0.09375,0.203125 0.1875,0.203125 0.09375,0 0.140625,-0.078125 0.203125,-0.140625 C 5.390625,-5.421875 5.625,-5.703125 6.0625,-5.921875 6.125,-5.96875 6.234375,-6.015625 6.234375,-6.125 6.234375,-6.234375 6.15625,-6.28125 6.09375,-6.328125 5.875,-6.484375 5.765625,-6.65625 5.6875,-6.890625 5.65625,-6.984375 5.625,-7.125 5.484375,-7.125 c -0.140625,0 -0.203125,0.140625 -0.203125,0.21875 0,0.046875 0.078125,0.359375 0.234375,0.578125 H 2.15625 c -0.15625,0 -0.34375,0 -0.34375,0.203125 0,0.1875 0.1875,0.1875 0.34375,0.1875 z m 0,0"
               id="id-b09c1887-6beb-4545-b418-a3b4a4b8a509" />
          </g>
        </g>
        <g
           style="fill:#000000;fill-opacity:1"
           id="id-078e7def-df95-4e04-a16f-80765a13da02">
          <g
             transform="translate(148.714,134.765)"
             id="g894">
            <path
               style="stroke:none;stroke-width:0"
               d="M 3.484375,-0.5625 C 3.59375,-0.15625 3.953125,0.109375 4.375,0.109375 4.71875,0.109375 4.953125,-0.125 5.109375,-0.4375 5.28125,-0.796875 5.40625,-1.40625 5.40625,-1.421875 c 0,-0.109375 -0.078125,-0.109375 -0.109375,-0.109375 -0.109375,0 -0.109375,0.046875 -0.140625,0.1875 -0.140625,0.5625 -0.328125,1.234375 -0.75,1.234375 -0.203125,0 -0.3125,-0.125 -0.3125,-0.453125 0,-0.21875 0.125,-0.6875 0.203125,-1.046875 L 4.578125,-2.6875 C 4.609375,-2.828125 4.703125,-3.203125 4.75,-3.359375 4.796875,-3.59375 4.890625,-3.96875 4.890625,-4.03125 c 0,-0.171875 -0.140625,-0.265625 -0.28125,-0.265625 -0.046875,0 -0.3125,0.015625 -0.390625,0.34375 -0.1875,0.734375 -0.625,2.484375 -0.75,3 -0.015625,0.046875 -0.40625,0.84375 -1.140625,0.84375 -0.515625,0 -0.609375,-0.453125 -0.609375,-0.8125 0,-0.5625 0.28125,-1.34375 0.53125,-2.03125 0.125,-0.3125 0.171875,-0.453125 0.171875,-0.640625 0,-0.4375 -0.3125,-0.8125 -0.8125,-0.8125 -0.953125,0 -1.3125,1.453125 -1.3125,1.53125 0,0.109375 0.09375,0.109375 0.109375,0.109375 0.109375,0 0.109375,-0.03125 0.15625,-0.1875 0.25,-0.859375 0.640625,-1.234375 1.015625,-1.234375 0.09375,0 0.25,0.015625 0.25,0.328125 0,0.234375 -0.109375,0.53125 -0.171875,0.671875 -0.375,1 -0.578125,1.609375 -0.578125,2.09375 0,0.953125 0.6875,1.203125 1.21875,1.203125 0.65625,0 1.015625,-0.453125 1.1875,-0.671875 z m 0,0"
               id="id-ea2b592a-fd2d-4a58-a310-75133e6199ba" />
          </g>
        </g>
      </g>
    </g>
    <g
       transform="matrix(1.05833,0,0,1.05833,29.439826,129.00696)"
       ns2:version="1.3.0"
       ns2:texconverter="pdflatex"
       ns2:pdfconverter="inkscape"
       ns2:text="$\\vec v$"
       ns2:preamble="/home/avan/.config/inkscape/extensions/textext/custom_preamble.tex"
       ns2:scale="3.0"
       ns2:alignment="middle center"
       ns2:jacobian_sqrt="1.05833"
       id="g1001">
      <defs
         id="id-fe566543-7c70-4570-a804-a9b3e8643a84">
        <g
           id="id-e05bf24b-f8ae-4ee2-81c8-dce82e487906">
          <symbol
             overflow="visible"
             id="id-307a8482-93ed-4a9b-9ae9-0a6f6d98b886">
            <path
               style="stroke:none;stroke-width:0"
               d=""
               id="id-09ae49b2-5bea-4742-990c-7d0a5b2bebee" />
          </symbol>
          <symbol
             overflow="visible"
             id="id-c40670a3-16e9-47c2-b9eb-61d523849a6b">
            <path
               style="stroke:none;stroke-width:0"
               d="m 5.359375,-5.9375 c -0.140625,0.140625 -0.46875,0.421875 -0.46875,0.59375 0,0.09375 0.09375,0.203125 0.1875,0.203125 0.09375,0 0.140625,-0.078125 0.203125,-0.140625 C 5.390625,-5.421875 5.625,-5.703125 6.0625,-5.921875 6.125,-5.96875 6.234375,-6.015625 6.234375,-6.125 6.234375,-6.234375 6.15625,-6.28125 6.09375,-6.328125 5.875,-6.484375 5.765625,-6.65625 5.6875,-6.890625 5.65625,-6.984375 5.625,-7.125 5.484375,-7.125 c -0.140625,0 -0.203125,0.140625 -0.203125,0.21875 0,0.046875 0.078125,0.359375 0.234375,0.578125 H 2.15625 c -0.15625,0 -0.34375,0 -0.34375,0.203125 0,0.1875 0.1875,0.1875 0.34375,0.1875 z m 0,0"
               id="id-5399b983-e7bc-4592-a6cb-fca7f7915c0c" />
          </symbol>
          <symbol
             overflow="visible"
             id="id-7ff5247b-1b75-4664-bb18-8199c8197b03">
            <path
               style="stroke:none;stroke-width:0"
               d="m 4.671875,-3.703125 c 0,-0.546875 -0.265625,-0.703125 -0.4375,-0.703125 -0.25,0 -0.5,0.265625 -0.5,0.484375 0,0.125 0.046875,0.1875 0.15625,0.296875 0.21875,0.203125 0.34375,0.453125 0.34375,0.8125 0,0.421875 -0.609375,2.703125 -1.765625,2.703125 -0.515625,0 -0.75,-0.34375 -0.75,-0.875 0,-0.546875 0.28125,-1.28125 0.578125,-2.109375 0.078125,-0.171875 0.125,-0.3125 0.125,-0.5 0,-0.4375 -0.3125,-0.8125 -0.8125,-0.8125 -0.9375,0 -1.3125,1.453125 -1.3125,1.53125 0,0.109375 0.09375,0.109375 0.109375,0.109375 0.109375,0 0.109375,-0.03125 0.15625,-0.1875 0.296875,-1 0.71875,-1.234375 1.015625,-1.234375 0.078125,0 0.25,0 0.25,0.3125 0,0.25 -0.109375,0.53125 -0.171875,0.703125 -0.4375,1.15625 -0.5625,1.609375 -0.5625,2.046875 0,1.078125 0.875,1.234375 1.328125,1.234375 1.671875,0 2.25,-3.296875 2.25,-3.8125 z m 0,0"
               id="id-c3d7a626-8661-4fbb-bdd3-75dbbcbbb1c0" />
          </symbol>
        </g>
      </defs>
      <g
         id="id-394b0856-3aad-4b77-9851-031934b16d01"
         transform="translate(-149.01,-127.64)">
        <g
           style="fill:#000000;fill-opacity:1"
           id="id-8d803e80-c6a6-401c-8300-276306a1ead7">
          <g
             transform="translate(148.325,134.765)"
             id="g993">
            <path
               style="stroke:none;stroke-width:0"
               d="m 5.359375,-5.9375 c -0.140625,0.140625 -0.46875,0.421875 -0.46875,0.59375 0,0.09375 0.09375,0.203125 0.1875,0.203125 0.09375,0 0.140625,-0.078125 0.203125,-0.140625 C 5.390625,-5.421875 5.625,-5.703125 6.0625,-5.921875 6.125,-5.96875 6.234375,-6.015625 6.234375,-6.125 6.234375,-6.234375 6.15625,-6.28125 6.09375,-6.328125 5.875,-6.484375 5.765625,-6.65625 5.6875,-6.890625 5.65625,-6.984375 5.625,-7.125 5.484375,-7.125 c -0.140625,0 -0.203125,0.140625 -0.203125,0.21875 0,0.046875 0.078125,0.359375 0.234375,0.578125 H 2.15625 c -0.15625,0 -0.34375,0 -0.34375,0.203125 0,0.1875 0.1875,0.1875 0.34375,0.1875 z m 0,0"
               id="id-4cabf93c-b965-4122-b534-2479392a1edc" />
          </g>
        </g>
        <g
           style="fill:#000000;fill-opacity:1"
           id="id-f334eea5-a7e6-497a-8a0a-e8a5b32161d6">
          <g
             transform="translate(148.714,134.765)"
             id="g997">
            <path
               style="stroke:none;stroke-width:0"
               d="m 4.671875,-3.703125 c 0,-0.546875 -0.265625,-0.703125 -0.4375,-0.703125 -0.25,0 -0.5,0.265625 -0.5,0.484375 0,0.125 0.046875,0.1875 0.15625,0.296875 0.21875,0.203125 0.34375,0.453125 0.34375,0.8125 0,0.421875 -0.609375,2.703125 -1.765625,2.703125 -0.515625,0 -0.75,-0.34375 -0.75,-0.875 0,-0.546875 0.28125,-1.28125 0.578125,-2.109375 0.078125,-0.171875 0.125,-0.3125 0.125,-0.5 0,-0.4375 -0.3125,-0.8125 -0.8125,-0.8125 -0.9375,0 -1.3125,1.453125 -1.3125,1.53125 0,0.109375 0.09375,0.109375 0.109375,0.109375 0.109375,0 0.109375,-0.03125 0.15625,-0.1875 0.296875,-1 0.71875,-1.234375 1.015625,-1.234375 0.078125,0 0.25,0 0.25,0.3125 0,0.25 -0.109375,0.53125 -0.171875,0.703125 -0.4375,1.15625 -0.5625,1.609375 -0.5625,2.046875 0,1.078125 0.875,1.234375 1.328125,1.234375 1.671875,0 2.25,-3.296875 2.25,-3.8125 z m 0,0"
               id="id-8b484102-38fe-433f-8055-d2ac9b42873f" />
          </g>
        </g>
      </g>
    </g>
    <g
       transform="matrix(1.05833,0,0,1.05833,59.715455,142.43107)"
       ns2:version="1.3.0"
       ns2:texconverter="pdflatex"
       ns2:pdfconverter="inkscape"
       ns2:text="$\\vec w$"
       ns2:preamble="/home/avan/.config/inkscape/extensions/textext/custom_preamble.tex"
       ns2:scale="3.0"
       ns2:alignment="middle center"
       ns2:jacobian_sqrt="1.05833"
       id="g1078">
      <defs
         id="id-1144b3f2-1d56-4f0b-910c-b915065cc0c3">
        <g
           id="id-b1ab8b62-7ae9-4eeb-aab1-d844572a303d">
          <symbol
             overflow="visible"
             id="id-f8164761-ad53-4aed-8774-7137c0a39c39">
            <path
               style="stroke:none;stroke-width:0"
               d=""
               id="id-85d4af39-c99b-4538-b529-44d34ea2f568" />
          </symbol>
          <symbol
             overflow="visible"
             id="id-42d7777e-4e7f-4ab0-9720-60714b5150dc">
            <path
               style="stroke:none;stroke-width:0"
               d="m 5.359375,-5.9375 c -0.140625,0.140625 -0.46875,0.421875 -0.46875,0.59375 0,0.09375 0.09375,0.203125 0.1875,0.203125 0.09375,0 0.140625,-0.078125 0.203125,-0.140625 C 5.390625,-5.421875 5.625,-5.703125 6.0625,-5.921875 6.125,-5.96875 6.234375,-6.015625 6.234375,-6.125 6.234375,-6.234375 6.15625,-6.28125 6.09375,-6.328125 5.875,-6.484375 5.765625,-6.65625 5.6875,-6.890625 5.65625,-6.984375 5.625,-7.125 5.484375,-7.125 c -0.140625,0 -0.203125,0.140625 -0.203125,0.21875 0,0.046875 0.078125,0.359375 0.234375,0.578125 H 2.15625 c -0.15625,0 -0.34375,0 -0.34375,0.203125 0,0.1875 0.1875,0.1875 0.34375,0.1875 z m 0,0"
               id="id-27254e72-8be9-4fdc-af3c-0de946cea7d4" />
          </symbol>
          <symbol
             overflow="visible"
             id="id-130434d0-6382-4a16-b9fe-9b2fb05ec50c">
            <path
               style="stroke:none;stroke-width:0"
               d="M 4.609375,-3.375 C 4.65625,-3.59375 4.75,-3.96875 4.75,-4.03125 c 0,-0.171875 -0.140625,-0.265625 -0.28125,-0.265625 -0.125,0 -0.296875,0.078125 -0.375,0.28125 -0.03125,0.0625 -0.5,1.96875 -0.5625,2.234375 C 3.453125,-1.484375 3.4375,-1.3125 3.4375,-1.125 c 0,0.109375 0,0.125 0.015625,0.171875 -0.234375,0.53125 -0.53125,0.84375 -0.921875,0.84375 -0.796875,0 -0.796875,-0.734375 -0.796875,-0.90625 0,-0.3125 0.046875,-0.703125 0.515625,-1.9375 0.109375,-0.296875 0.171875,-0.4375 0.171875,-0.640625 0,-0.4375 -0.328125,-0.8125 -0.8125,-0.8125 -0.953125,0 -1.3125,1.453125 -1.3125,1.53125 0,0.109375 0.09375,0.109375 0.109375,0.109375 0.109375,0 0.109375,-0.03125 0.15625,-0.1875 C 0.84375,-3.875 1.21875,-4.1875 1.578125,-4.1875 c 0.09375,0 0.25,0.015625 0.25,0.328125 0,0.25 -0.109375,0.53125 -0.1875,0.703125 -0.4375,1.171875 -0.546875,1.625 -0.546875,2.015625 0,0.90625 0.65625,1.25 1.40625,1.25 0.171875,0 0.640625,0 1.03125,-0.703125 0.265625,0.640625 0.953125,0.703125 1.25,0.703125 0.75,0 1.1875,-0.625 1.453125,-1.21875 0.328125,-0.78125 0.65625,-2.125 0.65625,-2.59375 0,-0.546875 -0.265625,-0.703125 -0.4375,-0.703125 -0.25,0 -0.5,0.265625 -0.5,0.484375 0,0.125 0.0625,0.1875 0.140625,0.265625 0.109375,0.109375 0.359375,0.359375 0.359375,0.84375 0,0.34375 -0.28125,1.3125 -0.546875,1.828125 -0.25,0.53125 -0.609375,0.875 -1.09375,0.875 -0.46875,0 -0.734375,-0.296875 -0.734375,-0.875 0,-0.265625 0.0625,-0.578125 0.109375,-0.71875 z m 0,0"
               id="id-9ae04682-b78d-466e-98c3-22479c11e168" />
          </symbol>
        </g>
      </defs>
      <g
         id="id-e8fe041f-50bb-4473-a660-9f5cae49fb77"
         transform="translate(-149.008,-127.64)">
        <g
           style="fill:#000000;fill-opacity:1"
           id="id-b2cd9ecd-de77-4136-a195-107b5491c981">
          <g
             transform="translate(149.986,134.765)"
             id="g1070">
            <path
               style="stroke:none;stroke-width:0"
               d="m 5.359375,-5.9375 c -0.140625,0.140625 -0.46875,0.421875 -0.46875,0.59375 0,0.09375 0.09375,0.203125 0.1875,0.203125 0.09375,0 0.140625,-0.078125 0.203125,-0.140625 C 5.390625,-5.421875 5.625,-5.703125 6.0625,-5.921875 6.125,-5.96875 6.234375,-6.015625 6.234375,-6.125 6.234375,-6.234375 6.15625,-6.28125 6.09375,-6.328125 5.875,-6.484375 5.765625,-6.65625 5.6875,-6.890625 5.65625,-6.984375 5.625,-7.125 5.484375,-7.125 c -0.140625,0 -0.203125,0.140625 -0.203125,0.21875 0,0.046875 0.078125,0.359375 0.234375,0.578125 H 2.15625 c -0.15625,0 -0.34375,0 -0.34375,0.203125 0,0.1875 0.1875,0.1875 0.34375,0.1875 z m 0,0"
               id="id-eb454a76-9ff1-4615-80d1-0b34dcc4f5fa" />
          </g>
        </g>
        <g
           style="fill:#000000;fill-opacity:1"
           id="id-f20bb2cb-6ca6-409f-83a0-8cafb27a53ec">
          <g
             transform="translate(148.711,134.765)"
             id="g1074">
            <path
               style="stroke:none;stroke-width:0"
               d="M 4.609375,-3.375 C 4.65625,-3.59375 4.75,-3.96875 4.75,-4.03125 c 0,-0.171875 -0.140625,-0.265625 -0.28125,-0.265625 -0.125,0 -0.296875,0.078125 -0.375,0.28125 -0.03125,0.0625 -0.5,1.96875 -0.5625,2.234375 C 3.453125,-1.484375 3.4375,-1.3125 3.4375,-1.125 c 0,0.109375 0,0.125 0.015625,0.171875 -0.234375,0.53125 -0.53125,0.84375 -0.921875,0.84375 -0.796875,0 -0.796875,-0.734375 -0.796875,-0.90625 0,-0.3125 0.046875,-0.703125 0.515625,-1.9375 0.109375,-0.296875 0.171875,-0.4375 0.171875,-0.640625 0,-0.4375 -0.328125,-0.8125 -0.8125,-0.8125 -0.953125,0 -1.3125,1.453125 -1.3125,1.53125 0,0.109375 0.09375,0.109375 0.109375,0.109375 0.109375,0 0.109375,-0.03125 0.15625,-0.1875 C 0.84375,-3.875 1.21875,-4.1875 1.578125,-4.1875 c 0.09375,0 0.25,0.015625 0.25,0.328125 0,0.25 -0.109375,0.53125 -0.1875,0.703125 -0.4375,1.171875 -0.546875,1.625 -0.546875,2.015625 0,0.90625 0.65625,1.25 1.40625,1.25 0.171875,0 0.640625,0 1.03125,-0.703125 0.265625,0.640625 0.953125,0.703125 1.25,0.703125 0.75,0 1.1875,-0.625 1.453125,-1.21875 0.328125,-0.78125 0.65625,-2.125 0.65625,-2.59375 0,-0.546875 -0.265625,-0.703125 -0.4375,-0.703125 -0.25,0 -0.5,0.265625 -0.5,0.484375 0,0.125 0.0625,0.1875 0.140625,0.265625 0.109375,0.109375 0.359375,0.359375 0.359375,0.84375 0,0.34375 -0.28125,1.3125 -0.546875,1.828125 -0.25,0.53125 -0.609375,0.875 -1.09375,0.875 -0.46875,0 -0.734375,-0.296875 -0.734375,-0.875 0,-0.265625 0.0625,-0.578125 0.109375,-0.71875 z m 0,0"
               id="id-fb5837c9-11a9-489e-9e9f-6aae91026810" />
          </g>
        </g>
      </g>
    </g>
  </g>
</svg>
